<?xml version="1.0" encoding="utf-8"?>
<!-- Generator: Adobe Illustrator 24.2.1, SVG Export Plug-In . SVG Version: 6.00 Build 0)  -->
<svg version="1.1" xmlns="http://www.w3.org/2000/svg" xmlns:xlink="http://www.w3.org/1999/xlink" width="64px" height="64px" x="0px" y="0px"
	 viewBox="0 0 48 48" style="enable-background:new 0 0 715.8 317.4;" xml:space="preserve">
<style type="text/css">
	.st0{fill:#242B2C;}
	.st1{fill:url(#SVGID_1_);}
</style>
<g id="sign">
	<g id="b_1_">
		<linearGradient id="SVGID_1_" gradientUnits="userSpaceOnUse" x1="188.3014" y1="75.5591" x2="123.8106" y2="295.4895">
			<stop  offset="0" style="stop-color:#000000"/>
			<stop  offset="5.189538e-02" style="stop-color:#000000"/>
			<stop  offset="0.3551" style="stop-color:#000000"/>
			<stop  offset="0.6673" style="stop-color:#000000"/>
			<stop  offset="1" style="stop-color:#000000"/>
		</linearGradient>
		<path class="st1" d="M87.5,163.9L120.2,51h50.1l-10.1,35c-0.1,0.2-0.2,0.4-0.3,0.6L133.3,179h24.8c-10.4,25.9-18.5,46.2-24.3,60.9
			c-45.8-0.5-58.6-33.3-47.4-72.1 M133.9,240l60.4-86.9h-25.6l22.3-55.7c38.2,4,56.2,34.1,45.6,70.5C225.3,207,179.4,240,134.8,240
			C134.5,240,134.2,240,133.9,240z"/>
	</g>
</g>
</svg>
